<!DOCTYPE svg PUBLIC "-//W3C//DTD SVG 1.1//EN" "http://www.w3.org/Graphics/SVG/1.1/DTD/svg11.dtd">
<!-- Uploaded to: SVG Repo, www.svgrepo.com, Transformed by: SVG Repo Mixer Tools -->
<svg fill="#000000" height="64px" width="64px" version="1.1" id="Capa_1" xmlns="http://www.w3.org/2000/svg" xmlns:xlink="http://www.w3.org/1999/xlink" viewBox="0 0 297.97 297.97" xml:space="preserve" stroke="#000000" stroke-width="0.0029797300000000003">
<g id="SVGRepo_bgCarrier" stroke-width="0"/>
<g id="SVGRepo_tracerCarrier" stroke-linecap="round" stroke-linejoin="round" stroke="#CCCCCC" stroke-width="0.595946"/>
<g id="SVGRepo_iconCarrier"> <g id="_x33_9-Film_Reel_Playing"> <path d="M289.997,3.986h-52.521c-4.405,0-7.976,3.572-7.976,7.978v13.19H68.473v-13.19c0-4.406-3.569-7.978-7.976-7.978H7.976 C3.57,3.986,0,7.559,0,11.965v274.043c0,4.406,3.57,7.978,7.976,7.978h52.521c4.406,0,7.976-3.572,7.976-7.978v-13.19H229.5v13.19 c0,4.406,3.57,7.978,7.976,7.978h52.521c4.406,0,7.976-3.572,7.976-7.978V11.965C297.973,7.559,294.403,3.986,289.997,3.986z M50.986,245.736h-33.5v-33.5h33.5V245.736z M50.986,165.736h-33.5v-33.5h33.5V165.736z M50.986,85.736h-33.5v-33.5h33.5V85.736z M229.5,239.654H68.473V58.318H229.5V239.654z M280.486,245.736h-33.5v-33.5h33.5V245.736z M280.486,165.736h-33.5v-33.5h33.5 V165.736z M280.486,85.736h-33.5v-33.5h33.5V85.736z"/> <path d="M148.986,203.777c30.26,0,54.791-24.531,54.791-54.791s-24.531-54.791-54.791-54.791s-54.791,24.531-54.791,54.791 S118.727,203.777,148.986,203.777z M133.507,122.563c0-1.348,0.759-2.584,1.962-3.193c1.206-0.605,2.648-0.486,3.733,0.313 l35.908,26.424c0.913,0.674,1.455,1.744,1.455,2.881s-0.542,2.205-1.455,2.879l-35.908,26.426 c-0.625,0.461-1.368,0.695-2.119,0.695c-0.55,0-1.103-0.127-1.614-0.383c-1.203-0.609-1.962-1.846-1.962-3.193V122.563z"/> </g> </g>
</svg>